<svg width="35" height="35" viewBox="0 0 35 35" fill="none" xmlns="http://www.w3.org/2000/svg">
<path d="M3.46535 24.2742C3.46535 23.3389 2.68959 22.5806 1.73267 22.5806C0.775752 22.5806 0 23.3389 0 24.2742H3.46535ZM35 24.2742C35 23.3389 34.2242 22.5806 33.2673 22.5806C32.3104 22.5806 31.5347 23.3389 31.5347 24.2742H35ZM16.1337 25.4906C15.5453 26.2281 15.6798 27.2923 16.4343 27.8677C17.1888 28.4428 18.2776 28.3114 18.8663 27.5739L16.1337 25.4906ZM27.8762 16.2836C28.4646 15.5461 28.3301 14.4819 27.5756 13.9065C26.8211 13.3314 25.7323 13.4628 25.1436 14.2003L27.8762 16.2836ZM16.1337 27.5739C16.7224 28.3114 17.8112 28.4428 18.5657 27.8677C19.3202 27.2923 19.4547 26.2281 18.8663 25.4906L16.1337 27.5739ZM9.85632 14.2003C9.26777 13.4628 8.17898 13.3314 7.42446 13.9065C6.66991 14.4819 6.53534 15.5461 7.12387 16.2836L9.85632 14.2003ZM15.7673 26.5323C15.7673 27.4675 16.5431 28.2258 17.5 28.2258C18.4569 28.2258 19.2327 27.4675 19.2327 26.5323H15.7673ZM19.2327 1.69355C19.2327 0.758236 18.4569 0 17.5 0C16.5431 0 15.7673 0.758236 15.7673 1.69355H19.2327ZM0 24.2742V26.5323H3.46535V24.2742H0ZM0 26.5323C0 31.1683 3.76006 35 8.4901 35V31.6129C5.7561 31.6129 3.46535 29.379 3.46535 26.5323H0ZM8.4901 35H26.5099V31.6129H8.4901V35ZM26.5099 35C31.2399 35 35 31.1683 35 26.5323H31.5347C31.5347 29.379 29.2438 31.6129 26.5099 31.6129V35ZM35 26.5323V24.2742H31.5347V26.5323H35ZM18.8663 27.5739L27.8762 16.2836L25.1436 14.2003L16.1337 25.4906L18.8663 27.5739ZM18.8663 25.4906L9.85632 14.2003L7.12387 16.2836L16.1337 27.5739L18.8663 25.4906ZM19.2327 26.5323V1.69355H15.7673V26.5323H19.2327Z" fill="black"/>
</svg>
